Coordinates
version=1
nRows=15
nColumns=23
inDegrees=yes

Units are S.I. units (second, meters, Newtons, ...)
Angles are in degrees.

endheader
time	pelvis_tilt	pelvis_list	pelvis_rotation	pelvis_tx	pelvis_ty	pelvis_tz	hip_flexion_r	hip_adduction_r	hip_rotation_r	knee_angle_r	knee_angle_r_beta	ankle_angle_r	subtalar_angle_r	mtp_angle_r	hip_flexion_l	hip_adduction_l	hip_rotation_l	knee_angle_l	knee_angle_l_beta	ankle_angle_l	subtalar_angle_l	mtp_angle_l
    122.00000000	     -6.36985112	     -4.03947193	     -4.71936749	     -0.00152060	      1.34967106	      0.21860056	     69.72413499	     -0.95151251	     -3.84661437	     92.06633659	      1.60686070	     21.31887813	      0.00000000	      0.00000000	     34.37022344	    -12.44233118	     -8.64022405	     55.30415932	      0.96523967	     -2.92941328	      0.00000000	      0.00000000
    122.00888900	     -6.24762250	     -3.84569108	     -4.42697149	     -0.00147540	      1.34966881	      0.21882439	     68.83282737	     -1.17951248	     -3.93511416	     89.80053284	      1.56731497	     21.17306933	      0.00000000	      0.00000000	     35.06887762	    -12.30658317	     -8.17405934	     58.07826161	      1.01365689	     -1.98177849	      0.00000000	      0.00000000
    122.01777800	     -6.17993880	     -3.61403466	     -4.12184665	     -0.00132412	      1.34955546	      0.21906607	     67.88184966	     -1.43011449	     -3.98896233	     87.42815686	      1.52590920	     20.98095700	      0.00000000	      0.00000000	     35.87301672	    -12.12868434	     -7.70580947	     60.90343877	      1.06296553	     -0.93508795	      0.00000000	      0.00000000
    122.02666700	     -6.09717662	     -3.34132330	     -3.81264256	     -0.00110467	      1.34944618	      0.21934851	     66.80624900	     -1.69639253	     -4.00843944	     84.95676831	      1.48277533	     20.74010154	      0.00000000	      0.00000000	     36.69484455	    -11.91433604	     -7.27930773	     63.73408731	      1.11236967	      0.06546468	      0.00000000	      0.00000000
    122.03555600	     -5.99763567	     -3.04513472	     -3.49602875	     -0.00083203	      1.34935693	      0.21966552	     65.60223177	     -1.96811137	     -4.00374233	     82.38622340	      1.43791086	     20.44561478	      0.00000000	      0.00000000	     37.53519975	    -11.68322378	     -6.88970621	     66.56671979	      1.16180843	      0.98381279	      0.00000000	      0.00000000
    122.04444400	     -5.91800430	     -2.71783709	     -3.16405289	     -0.00047328	      1.34924855	      0.21999644	     64.31617107	     -2.26673589	     -3.98029370	     79.72600203	      1.39148123	     20.06560361	      0.00000000	      0.00000000	     38.43230998	    -11.41959977	     -6.53159964	     69.39187103	      1.21111662	      1.92936824	      0.00000000	      0.00000000
    122.05333300	     -5.84233417	     -2.34902255	     -2.81994457	     -0.00006968	      1.34913958	      0.22034020	     62.94378706	     -2.59057408	     -3.92407867	     76.98292173	      1.34360545	     19.60336177	      0.00000000	      0.00000000	     39.36411373	    -11.11802191	     -6.22276684	     72.19070351	      1.25996547	      2.81315802	      0.00000000	      0.00000000
    122.06222200	     -5.77369217	     -1.98478917	     -2.48117969	      0.00037020	      1.34899103	      0.22070199	     61.49215936	     -2.89865548	     -3.86231019	     74.17538950	      1.29460477	     19.06141410	      0.00000000	      0.00000000	     40.34997212	    -10.83739420	     -5.95625412	     74.99498183	      1.30890936	      3.63065411	      0.00000000	      0.00000000
    122.07111100	     -5.73871936	     -1.57134026	     -2.10055781	      0.00081966	      1.34882294	      0.22107325	     60.00218368	     -3.26334061	     -3.78187807	     71.29986790	      1.24441745	     18.38894774	      0.00000000	      0.00000000	     41.40557880	    -10.49735992	     -5.72266071	     77.74790935	      1.35695700	      4.45358187	      0.00000000	      0.00000000
    122.08000000	     -5.74132919	     -1.13473616	     -1.69425585	      0.00129901	      1.34862469	      0.22136685	     58.48559611	     -3.67238689	     -3.70810723	     68.37983335	      1.19345323	     17.54220789	      0.00000000	      0.00000000	     42.53888960	    -10.11940270	     -5.51848713	     80.45402078	      1.40418756	      5.27164528	      0.00000000	      0.00000000
    122.08888900	     -5.78883414	     -0.69098979	     -1.32367215	      0.00181345	      1.34845710	      0.22178226	     56.94308582	     -4.03189890	     -3.59333167	     65.39523634	      1.14136219	     16.72737756	      0.00000000	      0.00000000	     43.73723415	     -9.78876220	     -5.40363678	     83.08346632	      1.45008004	      5.94752676	      0.00000000	      0.00000000
    122.09777800	     -5.85390964	     -0.24017260	     -0.89262272	      0.00227151	      1.34819482	      0.22210497	     55.38641384	     -4.46440342	     -3.53993899	     62.44067481	      1.08979536	     15.70875747	      0.00000000	      0.00000000	     45.01474820	     -9.41204552	     -5.27417953	     85.68289282	      1.49544859	      6.62056825	      0.00000000	      0.00000000
    122.10666700	     -5.96339239	      0.21331773	     -0.43660588	      0.00270662	      1.34788014	      0.22238825	     53.83450506	     -4.91752940	     -3.50827815	     59.48472493	      1.03820430	     14.46929121	      0.00000000	      0.00000000	     46.38307298	     -9.03046857	     -5.17966723	     88.20613797	      1.53948753	      7.24887302	      0.00000000	      0.00000000
    122.11555600	     -6.12479862	      0.64651855	     -0.00342318	      0.00316104	      1.34760795	      0.22274981	     52.29195050	     -5.32666896	     -3.48572684	     56.52028159	      0.98646501	     13.25895630	      0.00000000	      0.00000000	     47.82347751	     -8.69763163	     -5.12044100	     90.62070570	      1.58162968	      7.79570509	      0.00000000	      0.00000000
    122.12444400	     -6.32292648	      1.07582829	      0.44120102	      0.00359150	      1.34730736	      0.22307161	     50.77237968	     -5.75078372	     -3.50464855	     53.60390508	      0.93556464	     11.91696917	      0.00000000	      0.00000000	     49.33360258	     -8.36989126	     -5.09016758	     92.93659130	      1.62204951	      8.27889787	      0.00000000	      0.00000000
